<svg xmlns="http://www.w3.org/2000/svg" width="473" height="353" fill="none" viewBox="0 0 473 353"><path fill="#000" d="M55.872 102.686C78.336 102.686 91.008 92.6063 91.008 74.1743C91.008 61.5023 83.232 53.4383 69.408 50.1263C79.344 47.6783 86.544 39.3263 86.544 28.3823C86.544 11.6783 74.736 2.60627 52.416 2.60627H10.512V102.686H55.872ZM31.968 18.4463H49.824C60.048 18.4463 65.232 22.4783 65.232 30.5423C65.232 39.0383 60.048 43.3583 49.824 43.3583H31.968V18.4463ZM31.968 59.7743H50.976C62.496 59.7743 68.688 64.8143 68.688 73.4543C68.688 82.0943 62.496 86.8463 51.408 86.8463H31.968V59.7743ZM131.732 104.414C140.804 104.414 147.86 100.526 152.9 92.6063V102.686H172.628V31.6943H151.748V72.0143C151.748 81.8063 145.844 87.4223 137.636 87.4223C129.86 87.4223 125.972 82.6703 125.972 73.1663V31.6943H105.092V76.0463C105.092 94.0463 114.596 104.414 131.732 104.414ZM200.274 23.4863C207.042 23.4863 212.082 18.5903 212.082 12.1103C212.082 5.63028 207.042 0.734279 200.274 0.734279C193.794 0.734279 188.61 5.63028 188.61 12.1103C188.61 18.5903 193.794 23.4863 200.274 23.4863ZM210.642 102.686V31.6943H189.906V102.686H210.642ZM248.61 102.686V2.60627H227.874V102.686H248.61ZM294.355 104.414C305.011 104.414 312.643 99.8063 317.395 90.5903V102.686H336.979V2.60627H316.099V41.6303C311.923 33.8543 304.435 29.9663 293.923 29.9663C284.563 29.9663 276.787 33.4223 270.595 40.4783C264.403 47.5343 261.235 56.4623 261.235 67.2623C261.235 78.0623 264.403 86.8463 270.739 93.9023C276.931 100.958 284.851 104.414 294.355 104.414ZM299.251 88.2863C289.027 88.2863 282.691 80.3663 282.691 67.2623C282.691 54.0143 289.027 46.0943 299.251 46.0943C308.899 46.0943 316.099 55.1663 316.099 67.2623C316.099 73.1663 314.515 78.2063 311.347 82.2383C308.035 86.2703 304.003 88.2863 299.251 88.2863ZM35.28 217.414C47.088 217.414 56.448 210.646 63.36 197.11L47.808 188.614C44.496 196.102 41.76 199.414 37.872 199.414C33.984 199.414 32.112 196.822 32.112 191.782V161.686H59.76V144.694H32.112V124.246H17.568L12.384 144.694H1.44V161.686H11.376V193.366C11.376 209.35 19.296 217.414 35.28 217.414ZM92.7979 215.686V175.798C92.7979 165.862 98.8459 159.958 107.342 159.958C115.55 159.958 119.582 164.854 119.582 174.502V215.686H140.462V171.19C140.462 153.334 131.102 142.966 114.398 142.966C105.038 142.966 97.8379 146.854 92.7979 154.774V115.606H72.0619V215.686H92.7979ZM208.839 189.766C204.807 197.398 199.047 201.286 191.559 201.286C181.623 201.286 174.999 195.094 173.991 184.87H224.679C224.823 184.006 224.823 182.134 224.823 179.254C224.823 168.31 221.799 159.526 215.607 152.902C209.415 146.278 200.919 142.966 190.119 142.966C179.319 142.966 170.247 146.422 163.191 153.334C155.991 160.39 152.391 169.318 152.391 180.262C152.391 191.638 155.991 200.566 163.335 207.334C170.535 214.102 179.895 217.414 191.271 217.414C207.399 217.414 218.775 210.934 225.255 197.974L208.839 189.766ZM189.399 158.374C198.039 158.374 202.791 163.27 203.511 172.918H174.135C175.431 163.846 181.191 158.374 189.399 158.374Z"/><path fill="#2442D8" d="M31.968 328.686V290.958H71.568V271.374H31.968V248.19H80.496V228.606H10.512V328.686H31.968ZM116.544 330.414C125.616 330.414 132.672 326.526 137.712 318.606V328.686H157.44V257.694H136.56V298.014C136.56 307.806 130.656 313.422 122.448 313.422C114.672 313.422 110.784 308.67 110.784 299.166V257.694H89.9044V302.046C89.9044 320.046 99.4084 330.414 116.544 330.414ZM201.358 330.414C213.166 330.414 222.526 323.646 229.438 310.11L213.886 301.614C210.574 309.102 207.838 312.414 203.95 312.414C200.062 312.414 198.19 309.822 198.19 304.782V274.686H225.838V257.694H198.19V237.246H183.646L178.462 257.694H167.518V274.686H177.454V306.366C177.454 322.35 185.374 330.414 201.358 330.414ZM264.06 330.414C273.132 330.414 280.188 326.526 285.228 318.606V328.686H304.956V257.694H284.076V298.014C284.076 307.806 278.172 313.422 269.964 313.422C262.188 313.422 258.3 308.67 258.3 299.166V257.694H237.42V302.046C237.42 320.046 246.924 330.414 264.06 330.414ZM342.97 328.686V292.974C342.97 280.734 348.01 273.102 354.778 273.102C359.674 273.102 362.122 276.126 362.122 282.318C362.122 284.334 361.834 286.206 361.402 288.078L380.266 290.094C381.562 285.918 382.282 281.886 382.282 277.998C382.282 264.75 373.93 256.542 362.266 256.542C352.618 256.542 345.706 261.15 341.818 270.51V257.694H322.234V328.686H342.97ZM444.949 302.766C440.917 310.398 435.157 314.286 427.669 314.286C417.733 314.286 411.109 308.094 410.101 297.87H460.789C460.933 297.006 460.933 295.134 460.933 292.254C460.933 281.31 457.909 272.526 451.717 265.902C445.525 259.278 437.029 255.966 426.229 255.966C415.429 255.966 406.357 259.422 399.301 266.334C392.101 273.39 388.501 282.318 388.501 293.262C388.501 304.638 392.101 313.566 399.445 320.334C406.645 327.102 416.005 330.414 427.381 330.414C443.509 330.414 454.885 323.934 461.365 310.974L444.949 302.766ZM425.509 271.374C434.149 271.374 438.901 276.27 439.621 285.918H410.245C411.541 276.846 417.301 271.374 425.509 271.374Z"/><path fill="#FCC2C1" d="M213 12.5C213 19.4036 207.404 25 200.5 25C193.596 25 188 19.4036 188 12.5C188 5.59644 193.596 -1.83399e-06 200.5 -1.83399e-06C207.404 -1.83399e-06 213 5.59644 213 12.5Z"/></svg>