<svg width="202px" height="32px" viewBox="0 0 202 32" version="1.1" xmlns="http://www.w3.org/2000/svg" xmlns:xlink="http://www.w3.org/1999/xlink">
    <g id="Design" stroke="none" stroke-width="1" fill="none" fill-rule="evenodd">
        <g id="Guide" transform="translate(-248.000000, -2131.000000)">
            <g id="Menu" transform="translate(152.000000, 2033.000000)">
                <g id="Group">
                    <g id="Header" transform="translate(0.000000, 62.000000)">
                        <g id="Logo" transform="translate(96.000000, 36.000000)">
                            <path d="M26.6538175,28.7053176 L23.2068528,22.7469176 C23.1082175,22.5767529 22.8924998,22.5187765 22.723841,22.6192941 C21.9227116,23.0974118 19.6341469,24.3235765 17.2405469,24.3235765 C14.8623822,24.3235765 12.656641,23.1128471 11.8698175,22.6283294 C11.7000292,22.5240471 11.4794175,22.5816471 11.3811586,22.7548235 L7.98727628,28.7060706 C7.89805276,28.8626824 7.94134687,29.0599529 8.08704099,29.1664941 C8.97061746,29.8106353 12.1615822,31.8371765 17.3218645,31.8371765 C22.4791351,31.8371765 25.6693469,29.8125176 26.5551822,29.1676235 C26.7016292,29.0607059 26.7445469,28.8623059 26.6538175,28.7053176" id="Fill-34" fill="#FFA600"></path>
                            <path d="M17.3218269,-1.13686838e-13 C7.85246217,-1.13686838e-13 0.157026873,7.59792941 -4.26325641e-14,17.0300235 C-0.00259665675,17.1915294 0.12992099,17.3240471 0.291426873,17.3240471 L34.3522269,17.3240471 C34.5137328,17.3240471 34.6462504,17.1915294 34.6436537,17.0300235 C34.4866269,7.59792941 26.791568,-1.13686838e-13 17.3218269,-1.13686838e-13" id="Fill-36" fill="#FFA600"></path>
                            <polygon id="Fill-38" fill="#161D2B" points="59.0192575 12.2378541 54.9202457 12.2378541 54.9202457 24.2822776 51.8516339 24.2822776 51.8516339 12.2378541 47.7529986 12.2378541 47.7529986 9.35823059 59.0192575 9.35823059"></polygon>
                            <path d="M63.0556622,14.2766682 C63.6230033,13.5203388 64.6744857,13.0158682 66.103568,13.0158682 C68.7516622,13.0158682 70.1600386,14.7815153 70.1600386,17.4089035 L70.1600386,24.2821271 L67.1757563,24.2821271 L67.1757563,17.7450918 C67.1757563,16.4628329 66.629121,15.5800094 65.3050739,15.5800094 C63.8541563,15.5800094 63.0556622,16.4835388 63.0556622,17.9973271 L63.0556622,24.2821271 L60.0706269,24.2821271 L60.0706269,9.35845647 L63.0556622,9.35845647 L63.0556622,14.2766682 Z" id="Fill-40" fill="#161D2B"></path>
                            <path d="M74.6799445,17.4928188 L79.6824857,17.4928188 C79.4724151,16.2531012 78.5685092,15.4120659 77.1815916,15.4120659 C75.8153798,15.4120659 74.9321798,16.2312659 74.6799445,17.4928188 L74.6799445,17.4928188 Z M74.6377798,19.6368188 C74.8482269,21.1502306 75.8153798,21.9698071 77.3073328,21.9698071 C78.2112386,21.9698071 79.0729798,21.5707482 79.4302504,20.7718776 L82.436368,20.7718776 C81.784321,22.9998306 79.7664386,24.5343247 77.2233798,24.5343247 C73.9650269,24.5343247 71.6742033,22.1380894 71.6742033,18.7543718 C71.6742033,15.4956424 73.944321,13.0158306 77.201921,13.0158306 C80.4602739,13.0158306 82.667521,15.4956424 82.667521,18.7543718 C82.667521,19.23776 82.6249798,19.6368188 82.6249798,19.6368188 L74.6377798,19.6368188 Z" id="Fill-42" fill="#161D2B"></path>
                            <polygon id="Fill-44" fill="#161D2B" points="101.184716 24.2821647 98.1161045 24.2821647 98.1161045 18.1234824 91.8730928 18.1234824 91.8730928 24.2821647 88.8041045 24.2821647 88.8041045 9.35811765 91.8730928 9.35811765 91.8730928 15.3067294 98.1161045 15.3067294 98.1161045 9.35811765 101.184716 9.35811765"></polygon>
                            <path d="M108.794617,21.9068235 C110.370523,21.9068235 111.589912,20.7506824 111.589912,18.7749647 C111.589912,16.7996235 110.370523,15.6431059 108.794617,15.6431059 C107.217959,15.6431059 105.99857,16.7996235 105.99857,18.7749647 C105.99857,20.7506824 107.217959,21.9068235 108.794617,21.9068235 M103.013912,18.7749647 C103.013912,15.6431059 105.262947,13.0157176 108.794617,13.0157176 C112.325535,13.0157176 114.57457,15.6431059 114.57457,18.7749647 C114.57457,21.9068235 112.325535,24.5342118 108.794617,24.5342118 C105.262947,24.5342118 103.013912,21.9068235 103.013912,18.7749647" id="Fill-46" fill="#161D2B"></path>
                            <path d="M116.089112,19.5737224 L116.089112,13.26784 L119.07377,13.26784 L119.07377,19.6158871 C119.07377,21.1503812 119.767606,21.8645459 121.091276,21.8645459 C122.416076,21.8645459 123.109159,21.1503812 123.109159,19.6158871 L123.109159,13.26784 L126.094194,13.26784 L126.094194,19.5737224 C126.094194,23.1468047 124.307465,24.5344753 121.091276,24.5344753 C117.875465,24.5344753 116.089112,23.1468047 116.089112,19.5737224" id="Fill-48" fill="#161D2B"></path>
                            <path d="M127.43985,20.7090071 L130.46705,20.7090071 C130.508462,21.4446306 131.055474,22.1380894 132.295568,22.1380894 C133.430627,22.1380894 134.019427,21.7386541 134.019427,21.1291482 C134.019427,19.2795482 127.902533,21.0241129 127.902533,16.65216 C127.902533,14.65536 129.605309,13.0158306 132.31665,13.0158306 C135.616792,13.0158306 136.75185,15.1176659 136.835803,16.7364894 L133.95618,16.7364894 C133.893309,16.0422776 133.36738,15.4120659 132.295568,15.4120659 C131.328792,15.4120659 130.782156,15.8739953 130.782156,16.4835012 C130.782156,18.3338541 136.877968,16.4835012 136.877968,21.0030306 C136.877968,22.9791247 135.196274,24.5343247 132.211239,24.5343247 C128.764274,24.5343247 127.587427,22.7686776 127.43985,20.7090071" id="Fill-50" fill="#161D2B"></path>
                            <path d="M140.724782,17.4928188 L145.727323,17.4928188 C145.517253,16.2531012 144.613347,15.4120659 143.226053,15.4120659 C141.860217,15.4120659 140.977017,16.2312659 140.724782,17.4928188 L140.724782,17.4928188 Z M140.682617,19.6368188 C140.892688,21.1502306 141.860217,21.9698071 143.35217,21.9698071 C144.256076,21.9698071 145.117817,21.5707482 145.475088,20.7718776 L148.481206,20.7718776 C147.829159,22.9998306 145.811276,24.5343247 143.268217,24.5343247 C140.009865,24.5343247 137.719041,22.1380894 137.719041,18.7543718 C137.719041,15.4956424 139.989159,13.0158306 143.246759,13.0158306 C146.505112,13.0158306 148.712359,15.4956424 148.712359,18.7543718 C148.712359,19.23776 148.669817,19.6368188 148.669817,19.6368188 L140.682617,19.6368188 Z" id="Fill-52" fill="#161D2B"></path>
                            <polygon id="Fill-54" fill="#161D2B" points="154.033243 24.2836329 154.033243 9.45144471 163.872679 9.45144471 163.872679 12.25088 157.083408 12.25088 157.083408 15.3635388 163.559079 15.3635388 163.559079 18.1625976 157.083408 18.1625976 157.083408 24.2836329"></polygon>
                            <path d="M165.501253,19.6042165 L165.501253,13.3371106 L168.467841,13.3371106 L168.467841,19.6460047 C168.467841,21.1710871 169.157159,21.8811106 170.4733,21.8811106 C171.789441,21.8811106 172.478759,21.1710871 172.478759,19.6460047 L172.478759,13.3371106 L175.445347,13.3371106 L175.445347,19.6042165 C175.445347,23.1554635 173.669535,24.5344753 170.4733,24.5344753 C167.277065,24.5344753 165.501253,23.1554635 165.501253,19.6042165" id="Fill-56" fill="#161D2B"></path>
                            <path d="M180.792434,14.6738824 C181.293893,13.7338353 182.421799,13.0863059 184.051163,13.0863059 C186.683446,13.0863059 188.083163,14.8410353 188.083163,17.4522353 L188.083163,24.2836706 L185.116575,24.2836706 L185.116575,17.7869176 C185.116575,16.5125647 184.573705,15.6350118 183.257563,15.6350118 C181.816057,15.6350118 181.022081,16.5543529 181.022081,18.0161882 L181.022081,24.2836706 L178.055493,24.2836706 L178.055493,13.3370353 L180.792434,13.3370353 L180.792434,14.6738824 Z" id="Fill-58" fill="#161D2B"></path>
                            <path d="M195.665582,15.6976188 C194.014759,15.6976188 192.970806,17.0344659 192.970806,18.8102776 C192.970806,20.5860894 194.014759,21.9229365 195.665582,21.9229365 C197.315653,21.9229365 198.359982,20.5860894 198.359982,18.8102776 C198.359982,17.0344659 197.315653,15.6976188 195.665582,15.6976188 L195.665582,15.6976188 Z M198.276782,8.61583059 L201.242994,8.61583059 L201.242994,24.2837835 L198.506429,24.2837835 L198.506429,22.94656 C197.817112,23.9491012 196.584547,24.5345129 195.038759,24.5345129 C191.863229,24.5345129 190.004217,21.9858071 190.004217,18.8102776 C190.004217,15.6347482 191.863229,13.0864188 195.038759,13.0864188 C196.584547,13.0864188 197.712453,13.7546541 198.276782,14.5068424 L198.276782,8.61583059 Z" id="Fill-60" fill="#161D2B"></path>
                        </g>
                    </g>
                </g>
            </g>
        </g>
    </g>
</svg>
